HIERARCHY
ROOT mixamorig8:Hips
{
	OFFSET 0.000000 95.601868 0.000000
	CHANNELS 6 Xposition Yposition Zposition Xrotation Yrotation Zrotation
	JOINT mixamorig8:Spine
	{
		OFFSET 0.000000 10.422600 -1.061300
		CHANNELS 3 Xrotation Yrotation Zrotation
		JOINT mixamorig8:Spine1
		{
			OFFSET 0.000000 12.159721 -1.238206
			CHANNELS 3 Xrotation Yrotation Zrotation
			JOINT mixamorig8:Spine2
			{
				OFFSET 0.000000 13.896835 -1.415094
				CHANNELS 3 Xrotation Yrotation Zrotation
				JOINT mixamorig8:Neck
				{
					OFFSET 0.000000 15.633957 -1.591981
					CHANNELS 3 Xrotation Yrotation Zrotation
					JOINT mixamorig8:Head
					{
						OFFSET 0.000000 6.974503 2.478000
						CHANNELS 3 Xrotation Yrotation Zrotation
						JOINT mixamorig8:HeadTop_End
						{
							OFFSET 0.000000 20.494995 7.281700
							CHANNELS 3 Xrotation Yrotation Zrotation
							End Site
							{
								OFFSET 0.000000 21.750137 0.000000
							}
						}
					}
				}
				JOINT mixamorig8:LeftShoulder
				{
					OFFSET 7.303800 13.851456 -1.593213
					CHANNELS 3 Xrotation Yrotation Zrotation
					JOINT mixamorig8:LeftArm
					{
						OFFSET 14.566059 -3.558365 -0.002408
						CHANNELS 3 Xrotation Yrotation Zrotation
						JOINT mixamorig8:LeftForeArm
						{
							OFFSET 25.743414 0.000000 -0.000001
							CHANNELS 3 Xrotation Yrotation Zrotation
							JOINT mixamorig8:LeftHand
							{
								OFFSET 22.281700 0.000000 -0.000001
								CHANNELS 3 Xrotation Yrotation Zrotation
								JOINT mixamorig8:LeftHandThumb1
								{
									OFFSET 3.201164 -1.365997 2.690049
									CHANNELS 3 Xrotation Yrotation Zrotation
									JOINT mixamorig8:LeftHandThumb2
									{
										OFFSET 2.725899 -1.573792 1.573797
										CHANNELS 3 Xrotation Yrotation Zrotation
										JOINT mixamorig8:LeftHandThumb3
										{
											OFFSET 2.597427 -1.499619 1.499624
											CHANNELS 3 Xrotation Yrotation Zrotation
											JOINT mixamorig8:LeftHandThumb4
											{
												OFFSET 2.047806 -1.182297 1.182299
												CHANNELS 3 Xrotation Yrotation Zrotation
												End Site
												{
													OFFSET 1.797989 -1.145737 1.563238
												}
											}
										}
									}
								}
								JOINT mixamorig8:LeftHandIndex1
								{
									OFFSET 9.611206 -0.311234 2.501954
									CHANNELS 3 Xrotation Yrotation Zrotation
									JOINT mixamorig8:LeftHandIndex2
									{
										OFFSET 3.334274 0.000000 -0.000000
										CHANNELS 3 Xrotation Yrotation Zrotation
										JOINT mixamorig8:LeftHandIndex3
										{
											OFFSET 3.182304 0.000000 -0.000000
											CHANNELS 3 Xrotation Yrotation Zrotation
											JOINT mixamorig8:LeftHandIndex4
											{
												OFFSET 2.731956 0.000000 -0.000000
												CHANNELS 3 Xrotation Yrotation Zrotation
												End Site
												{
													OFFSET 2.731903 -0.000320 -0.017797
												}
											}
										}
									}
								}
								JOINT mixamorig8:LeftHandMiddle1
								{
									OFFSET 9.925911 0.000000 -0.000000
									CHANNELS 3 Xrotation Yrotation Zrotation
									JOINT mixamorig8:LeftHandMiddle2
									{
										OFFSET 3.424828 0.000000 0.000000
										CHANNELS 3 Xrotation Yrotation Zrotation
										JOINT mixamorig8:LeftHandMiddle3
										{
											OFFSET 3.369331 0.000000 0.000000
											CHANNELS 3 Xrotation Yrotation Zrotation
											JOINT mixamorig8:LeftHandMiddle4
											{
												OFFSET 2.942902 0.000000 0.000000
												CHANNELS 3 Xrotation Yrotation Zrotation
												End Site
												{
													OFFSET 2.942902 0.000015 0.000900
												}
											}
										}
									}
								}
								JOINT mixamorig8:LeftHandRing1
								{
									OFFSET 10.065971 -0.082916 -2.266527
									CHANNELS 3 Xrotation Yrotation Zrotation
									JOINT mixamorig8:LeftHandRing2
									{
										OFFSET 2.791298 0.000000 0.000000
										CHANNELS 3 Xrotation Yrotation Zrotation
										JOINT mixamorig8:LeftHandRing3
										{
											OFFSET 2.658607 0.000000 0.000000
											CHANNELS 3 Xrotation Yrotation Zrotation
											JOINT mixamorig8:LeftHandRing4
											{
												OFFSET 2.236107 0.000000 0.000000
												CHANNELS 3 Xrotation Yrotation Zrotation
												End Site
												{
													OFFSET 2.236107 0.000137 0.005798
												}
											}
										}
									}
								}
								JOINT mixamorig8:LeftHandPinky1
								{
									OFFSET 8.583519 -0.288223 -4.238468
									CHANNELS 3 Xrotation Yrotation Zrotation
									JOINT mixamorig8:LeftHandPinky2
									{
										OFFSET 2.687729 0.000000 0.000000
										CHANNELS 3 Xrotation Yrotation Zrotation
										JOINT mixamorig8:LeftHandPinky3
										{
											OFFSET 2.275513 0.000000 0.000000
											CHANNELS 3 Xrotation Yrotation Zrotation
											JOINT mixamorig8:LeftHandPinky4
											{
												OFFSET 1.948105 0.000000 0.000000
												CHANNELS 3 Xrotation Yrotation Zrotation
												End Site
												{
													OFFSET 1.948097 -0.000107 -0.005098
												}
											}
										}
									}
								}
							}
						}
					}
				}
				JOINT mixamorig8:RightShoulder
				{
					OFFSET -7.303800 13.851410 -1.590795
					CHANNELS 3 Xrotation Yrotation Zrotation
					JOINT mixamorig8:RightArm
					{
						OFFSET -14.566072 -3.558319 0.002404
						CHANNELS 3 Xrotation Yrotation Zrotation
						JOINT mixamorig8:RightForeArm
						{
							OFFSET -25.750904 0.000000 0.000001
							CHANNELS 3 Xrotation Yrotation Zrotation
							JOINT mixamorig8:RightHand
							{
								OFFSET -22.284901 0.000000 0.000000
								CHANNELS 3 Xrotation Yrotation Zrotation
								JOINT mixamorig8:RightHandThumb1
								{
									OFFSET -3.163162 -1.340439 2.713043
									CHANNELS 3 Xrotation Yrotation Zrotation
									JOINT mixamorig8:RightHandThumb2
									{
										OFFSET -2.712654 -1.566147 1.566152
										CHANNELS 3 Xrotation Yrotation Zrotation
										JOINT mixamorig8:RightHandThumb3
										{
											OFFSET -2.648239 -1.528961 1.528961
											CHANNELS 3 Xrotation Yrotation Zrotation
											JOINT mixamorig8:RightHandThumb4
											{
												OFFSET -2.194908 -1.267227 1.267229
												CHANNELS 3 Xrotation Yrotation Zrotation
												End Site
												{
													OFFSET -2.031616 -1.249817 1.529646
												}
											}
										}
									}
								}
								JOINT mixamorig8:RightHandIndex1
								{
									OFFSET -10.085068 -0.262451 2.622919
									CHANNELS 3 Xrotation Yrotation Zrotation
									JOINT mixamorig8:RightHandIndex2
									{
										OFFSET -3.173141 0.000000 0.000000
										CHANNELS 3 Xrotation Yrotation Zrotation
										JOINT mixamorig8:RightHandIndex3
										{
											OFFSET -3.064804 0.000000 0.000000
											CHANNELS 3 Xrotation Yrotation Zrotation
											JOINT mixamorig8:RightHandIndex4
											{
												OFFSET -2.521721 0.000000 0.000000
												CHANNELS 3 Xrotation Yrotation Zrotation
												End Site
												{
													OFFSET -2.521690 -0.000290 -0.010096
												}
											}
										}
									}
								}
								JOINT mixamorig8:RightHandMiddle1
								{
									OFFSET -9.804817 0.000000 0.000000
									CHANNELS 3 Xrotation Yrotation Zrotation
									JOINT mixamorig8:RightHandMiddle2
									{
										OFFSET -3.491928 0.000000 0.000000
										CHANNELS 3 Xrotation Yrotation Zrotation
										JOINT mixamorig8:RightHandMiddle3
										{
											OFFSET -3.416733 0.000000 0.000000
											CHANNELS 3 Xrotation Yrotation Zrotation
											JOINT mixamorig8:RightHandMiddle4
											{
												OFFSET -2.844498 0.000000 0.000000
												CHANNELS 3 Xrotation Yrotation Zrotation
												End Site
												{
													OFFSET -2.844498 0.000031 0.000999
												}
											}
										}
									}
								}
								JOINT mixamorig8:RightHandRing1
								{
									OFFSET -10.030296 -0.054901 -2.204751
									CHANNELS 3 Xrotation Yrotation Zrotation
									JOINT mixamorig8:RightHandRing2
									{
										OFFSET -2.807304 0.000000 0.000000
										CHANNELS 3 Xrotation Yrotation Zrotation
										JOINT mixamorig8:RightHandRing3
										{
											OFFSET -2.701004 0.000000 0.000000
											CHANNELS 3 Xrotation Yrotation Zrotation
											JOINT mixamorig8:RightHandRing4
											{
												OFFSET -2.164108 0.000000 0.000000
												CHANNELS 3 Xrotation Yrotation Zrotation
												End Site
												{
													OFFSET -2.164101 0.000214 0.004895
												}
											}
										}
									}
								}
								JOINT mixamorig8:RightHandPinky1
								{
									OFFSET -8.796547 -0.246353 -4.394717
									CHANNELS 3 Xrotation Yrotation Zrotation
									JOINT mixamorig8:RightHandPinky2
									{
										OFFSET -2.633102 0.000000 0.000000
										CHANNELS 3 Xrotation Yrotation Zrotation
										JOINT mixamorig8:RightHandPinky3
										{
											OFFSET -2.117722 0.000000 0.000000
											CHANNELS 3 Xrotation Yrotation Zrotation
											JOINT mixamorig8:RightHandPinky4
											{
												OFFSET -1.749016 0.000000 0.000000
												CHANNELS 3 Xrotation Yrotation Zrotation
												End Site
												{
													OFFSET -1.748993 0.000259 0.006595
												}
											}
										}
									}
								}
							}
						}
					}
				}
			}
		}
	}
	JOINT mixamorig8:LeftUpLeg
	{
		OFFSET 9.217100 -5.789398 -0.439100
		CHANNELS 3 Xrotation Yrotation Zrotation
		JOINT mixamorig8:LeftLeg
		{
			OFFSET 0.311980 -43.054802 -2.672531
			CHANNELS 3 Xrotation Yrotation Zrotation
			JOINT mixamorig8:LeftFoot
			{
				OFFSET -0.311977 -36.765347 -2.596062
				CHANNELS 3 Xrotation Yrotation Zrotation
				JOINT mixamorig8:LeftToeBase
				{
					OFFSET 0.731746 -8.598896 13.984765
					CHANNELS 3 Xrotation Yrotation Zrotation
					JOINT mixamorig8:LeftToe_End
					{
						OFFSET 0.930837 0.277384 7.189084
						CHANNELS 3 Xrotation Yrotation Zrotation
						End Site
						{
							OFFSET 0.930837 0.277384 7.189083
						}
					}
				}
			}
		}
	}
	JOINT mixamorig8:RightUpLeg
	{
		OFFSET -9.217100 -5.789398 -0.725500
		CHANNELS 3 Xrotation Yrotation Zrotation
		JOINT mixamorig8:RightLeg
		{
			OFFSET -0.311955 -43.054821 -2.369339
			CHANNELS 3 Xrotation Yrotation Zrotation
			JOINT mixamorig8:RightFoot
			{
				OFFSET 0.311950 -36.765358 -2.378026
				CHANNELS 3 Xrotation Yrotation Zrotation
				JOINT mixamorig8:RightToeBase
				{
					OFFSET -0.731773 -8.598959 13.974269
					CHANNELS 3 Xrotation Yrotation Zrotation
					JOINT mixamorig8:RightToe_End
					{
						OFFSET -0.930839 0.277358 7.314295
						CHANNELS 3 Xrotation Yrotation Zrotation
						End Site
						{
							OFFSET -0.930839 0.277358 7.314295
						}
					}
				}
			}
		}
	}
}
MOTION
Frames: 4
Frame Time: 0.033333
0.056863 94.320686 0.272556 -2.261642 -0.346961 -0.296832 1.785322 -1.270435 0.261606 3.579707 -2.533197 0.673625 3.579706 -2.533198 0.673625 -0.813610 0.452688 -0.065524 -0.813606 0.452692 -0.065525 0.000000 0.000000 -0.000000 0.442707 -8.235239 -13.151865 -0.624795 -8.808429 -59.472267 19.132390 -19.316379 6.827560 -5.405332 -8.531735 1.793590 25.111249 -2.687288 20.499109 9.304977 24.441183 -0.847876 -2.521165 -8.459283 -4.290570 -0.000000 0.000001 0.000001 0.599984 6.911492 -23.883886 2.733504 1.542660 -36.765969 4.400528 -2.444470 -4.361229 -0.000002 -0.000002 -0.000001 0.976117 7.422062 -32.221715 5.809247 1.256769 -45.781132 5.743662 -0.254565 -5.489717 -0.000000 -0.000001 -0.000001 -1.227787 6.340738 -44.477864 7.491182 2.055227 -50.574460 5.786976 -0.288670 -9.889660 0.000000 -0.000001 -0.000001 -5.698693 1.174826 -43.952749 10.001147 3.459274 -50.341950 10.463903 6.463367 -29.880421 0.000000 -0.000001 0.000000 0.662844 2.643778 20.148701 -3.947851 -2.327089 62.260337 16.631067 11.939502 -3.785998 -4.421753 12.103418 -12.551332 3.824836 -12.345955 -1.042557 4.523880 -9.504802 0.488643 3.860049 -12.119555 -3.867371 0.000002 -0.000001 0.000003 3.545369 -9.668654 69.326714 8.886357 -3.241713 112.372554 5.374720 0.824720 34.768152 0.000002 0.000000 -0.000000 5.660043 -9.815679 93.151705 8.809066 -2.682470 83.366263 6.985498 2.802875 35.996460 0.000000 0.000000 0.000001 4.831704 -12.380567 97.852514 10.912790 -3.225617 91.663488 8.357659 3.303316 55.647115 0.000000 0.000001 -0.000001 0.269954 -10.740398 93.149772 10.737862 -3.968339 60.274316 11.067067 -1.040088 24.703611 -0.000001 0.000001 0.000001 -20.318115 6.056823 -0.701588 61.824694 19.426349 1.042446 2.647200 -0.056491 5.126594 -10.484888 0.784608 -6.830295 -0.000003 0.000000 0.000002 -11.457501 -2.214936 5.113708 20.577579 -6.405626 -0.341282 -8.996552 0.337742 -4.027685 3.382016 -0.000008 0.000001 -0.000000 -0.000001 -0.000001 
0.087390 94.621582 3.474713 -1.182074 -0.921467 0.079183 1.712655 -1.049955 0.203716 3.430665 -2.093239 0.503626 3.430664 -2.093237 0.503626 -0.960912 0.499359 -0.108618 -0.960910 0.499356 -0.108617 -0.000000 0.000000 -0.000000 0.465039 -6.824379 -13.199367 1.984604 -7.920572 -60.960237 21.503707 -17.957653 7.212624 -5.434436 -8.399858 0.549887 25.111245 -2.687288 20.499112 9.304985 24.441180 -0.847876 -2.521162 -8.459281 -4.290571 0.000003 0.000001 -0.000000 0.599986 6.911493 -23.883889 2.733493 1.542658 -36.765973 4.400533 -2.444469 -4.361231 -0.000003 0.000001 0.000005 0.976119 7.422063 -32.221721 5.809245 1.256770 -45.781132 5.743666 -0.254573 -5.489715 -0.000000 -0.000001 -0.000000 -1.227785 6.340739 -44.477864 7.491182 2.055227 -50.574460 5.786973 -0.288671 -9.889661 -0.000000 -0.000005 0.000000 -5.698689 1.174823 -43.952756 10.001152 3.459278 -50.341954 10.463901 6.463364 -29.880418 -0.000002 -0.000001 0.000001 0.569191 3.625690 19.814080 -4.190935 -1.843522 62.253896 16.901759 11.574384 -3.701048 -4.234603 12.773943 -13.795080 3.824841 -12.345957 -1.042562 4.523877 -9.504806 0.488639 3.860046 -12.119555 -3.867369 0.000001 0.000001 0.000001 3.545369 -9.668653 69.326707 8.886357 -3.241712 112.372560 5.374719 0.824716 34.768152 0.000002 0.000000 0.000000 5.660043 -9.815677 93.151705 8.809063 -2.682464 83.366270 6.985497 2.802872 35.996460 -0.000002 0.000000 0.000001 4.831705 -12.380567 97.852514 10.912790 -3.225618 91.663488 8.357662 3.303317 55.647112 0.000001 0.000000 -0.000001 0.269955 -10.740398 93.149772 10.737859 -3.968340 60.274323 11.067068 -1.040088 24.703616 0.000001 0.000000 -0.000001 -24.752052 5.277792 -1.318443 53.684812 20.878054 0.568528 0.871287 -0.004815 5.129118 -9.827440 1.766994 -9.818654 -0.000002 0.000000 0.000001 -10.047604 -2.473988 4.584814 19.789672 -5.430049 -0.278364 -9.627362 0.207865 -3.793403 2.501255 0.056406 0.555482 0.000000 0.000003 -0.000000 
0.126115 94.691132 6.709628 -0.189727 -1.188782 0.352556 1.655318 -0.836661 0.130849 3.313556 -1.667528 0.363318 3.313558 -1.667529 0.363319 -1.188236 0.559316 -0.139233 -1.188218 0.559318 -0.139234 -0.000000 -0.000000 0.000000 0.483161 -5.754567 -13.302108 4.862704 -6.518459 -62.548666 23.279395 -17.178095 7.545241 -5.399968 -8.090056 0.577724 25.111245 -2.687290 20.499107 9.304980 24.441181 -0.847882 -2.521164 -8.459286 -4.290567 0.000001 0.000001 0.000002 0.599981 6.911491 -23.883887 2.733492 1.542658 -36.765969 4.400533 -2.444461 -4.361226 0.000001 -0.000002 -0.000004 0.976119 7.422062 -32.221718 5.809242 1.256769 -45.781132 5.743664 -0.254567 -5.489717 0.000001 0.000003 -0.000000 -1.227787 6.340738 -44.477867 7.491180 2.055227 -50.574460 5.786973 -0.288668 -9.889662 -0.000000 -0.000002 0.000000 -5.698688 1.174825 -43.952752 10.001151 3.459281 -50.341950 10.463904 6.463363 -29.880418 -0.000000 0.000002 -0.000001 0.497170 4.439216 19.494026 -5.445181 -0.910454 62.314452 16.872222 9.009026 -2.893377 -3.809034 14.502754 -16.183727 3.824838 -12.345957 -1.042557 4.523881 -9.504808 0.488645 3.860048 -12.119557 -3.867367 0.000002 0.000001 0.000005 3.545372 -9.668652 69.326714 8.886357 -3.241714 112.372554 5.374719 0.824718 34.768152 -0.000002 0.000001 0.000001 5.660044 -9.815678 93.151705 8.809066 -2.682470 83.366270 6.985497 2.802873 35.996460 0.000001 0.000000 -0.000000 4.831706 -12.380567 97.852514 10.912789 -3.225616 91.663488 8.357657 3.303318 55.647108 -0.000001 0.000001 -0.000003 0.269954 -10.740398 93.149765 10.737859 -3.968337 60.274323 11.067062 -1.040082 24.703614 -0.000000 0.000001 0.000001 -28.009440 5.483747 -1.869897 43.508711 22.350457 0.497137 0.012001 -0.197452 7.758327 -2.697956 1.218778 -7.609087 0.000000 -0.000002 0.000001 -9.035825 -2.043671 4.392333 20.014423 -5.791216 -0.215473 -10.911821 0.244081 -4.196503 1.647105 0.510704 1.237937 -0.000000 0.000002 -0.000000 
0.228335 94.451332 10.035121 0.610235 -1.050235 0.419096 1.614357 -0.632592 0.071540 3.229923 -1.253002 0.309907 3.229920 -1.253000 0.309906 -1.442960 0.654065 -0.160061 -1.442964 0.654066 -0.160061 0.000000 -0.000000 -0.000000 0.499612 -4.946124 -13.456555 7.985435 -4.989398 -64.194216 24.673942 -16.634852 7.819941 -5.366821 -7.799472 0.824050 25.111243 -2.687291 20.499107 9.304981 24.441181 -0.847880 -2.521160 -8.459281 -4.290569 0.000002 0.000000 -0.000004 0.599984 6.911492 -23.883887 2.733493 1.542658 -36.765973 4.400528 -2.444472 -4.361231 -0.000002 -0.000002 -0.000000 0.976121 7.422063 -32.221718 5.809250 1.256773 -45.781132 5.743667 -0.254567 -5.489715 0.000001 -0.000003 -0.000000 -1.227786 6.340739 -44.477861 7.491178 2.055229 -50.574460 5.786974 -0.288669 -9.889661 0.000001 0.000001 -0.000000 -5.698690 1.174826 -43.952752 10.001151 3.459279 -50.341954 10.463903 6.463361 -29.880421 -0.000001 -0.000001 -0.000000 0.442934 5.098731 19.203359 -6.920635 0.019896 62.393088 16.521606 5.742610 -1.840149 -3.143601 16.723730 -19.230314 3.824838 -12.345954 -1.042553 4.523879 -9.504802 0.488643 3.860047 -12.119551 -3.867367 0.000000 0.000005 0.000003 3.545371 -9.668652 69.326714 8.886356 -3.241712 112.372554 5.374721 0.824719 34.768159 -0.000000 0.000001 -0.000000 5.660045 -9.815680 93.151705 8.809067 -2.682468 83.366270 6.985500 2.802875 35.996456 0.000001 -0.000001 -0.000000 4.831705 -12.380566 97.852514 10.912792 -3.225617 91.663488 8.357657 3.303317 55.647112 -0.000003 0.000000 0.000002 0.269955 -10.740398 93.149772 10.737860 -3.968339 60.274316 11.067069 -1.040088 24.703616 0.000001 0.000000 0.000002 -30.292896 6.491138 -2.643270 32.459569 23.161795 1.022914 0.232095 -0.517350 10.898830 11.381097 0.378231 -1.889695 0.000001 0.000003 0.000000 -8.973795 -0.675376 4.519543 22.547127 -7.631332 -0.070561 -12.242019 0.315011 -4.485027 -0.568862 0.927014 0.851364 -0.000000 -0.000002 -0.000000 
